<?xml version="1.0" encoding="UTF-8"?>
<svg version="1.1" xmlns="http://www.w3.org/2000/svg" width="1254" height="1254">
<path d="M0 0 C0.90202148 0.42716309 1.80404297 0.85432617 2.73339844 1.29443359 C34.21019771 16.23479775 63.77401652 35.29165144 91 57 C91.98613281 57.78503906 92.97226562 58.57007813 93.98828125 59.37890625 C96.68295455 61.55882285 99.34763017 63.76882195 102 66 C102.53157715 66.44666016 103.0631543 66.89332031 103.61083984 67.35351562 C116.4015603 78.12848561 128.53201771 89.44472486 140.375 101.25 C140.84953613 101.7218573 141.32407227 102.1937146 141.81298828 102.67987061 C147.43431778 108.27710452 152.85766809 113.96050226 158 120 C158.94914809 121.08323561 159.89961559 122.16531692 160.8515625 123.24609375 C168.652331 132.19006633 175.89530941 141.49725264 183 151 C183.47824219 151.63550781 183.95648437 152.27101562 184.44921875 152.92578125 C216.10447842 195.04412395 240.96461667 242.17529341 258 292 C258.32547821 292.94972687 258.32547821 292.94972687 258.65753174 293.91864014 C275.837504 344.25475184 284.94941518 396.82715773 286 450 C286.01659668 450.77375977 286.03319336 451.54751953 286.05029297 452.34472656 C286.14098475 457.23312575 286.1050391 462.11211267 286 467 C285.98211426 467.89992676 285.96422852 468.79985352 285.94580078 469.72705078 C284.56759792 530.80055113 272.576055 592.49727716 249 649 C248.6090918 649.93827637 248.21818359 650.87655273 247.81542969 651.84326172 C227.98060581 698.98745774 202.13553084 743.88247952 169 783 C168.10765282 784.06605475 167.21574952 785.13248115 166.32421875 786.19921875 C160.68662778 792.92624669 154.94889375 799.54500634 149 806 C148.4421582 806.60827637 147.88431641 807.21655273 147.30957031 807.84326172 C137.62492305 818.37766195 127.57125947 828.35844107 117 838 C116.06285156 838.86367188 115.12570312 839.72734375 114.16015625 840.6171875 C108.29094861 845.97643239 102.20540824 851.03567341 96 856 C95.46890625 856.42539062 94.9378125 856.85078125 94.390625 857.2890625 C74.30853589 873.33596548 53.30923678 888.19430153 31 901 C30.10861328 901.51530273 29.21722656 902.03060547 28.29882812 902.56152344 C-17.10189548 928.72439934 -65.62842148 947.31713703 -116.6875 958.9375 C-117.67182007 959.16246155 -117.67182007 959.16246155 -118.67602539 959.39196777 C-125.78204081 961.00420049 -132.75187991 962.28368983 -140 963 C-139.99111755 964.01238739 -139.98223511 965.02477478 -139.9730835 966.06784058 C-139.89140882 975.68652789 -139.8317554 985.30514335 -139.79275131 994.92410088 C-139.77202368 999.86735549 -139.74398294 1004.8103265 -139.69824219 1009.75341797 C-139.65424804 1014.53861333 -139.630752 1019.3235388 -139.62049103 1024.10892105 C-139.61319442 1025.91945764 -139.59895153 1027.72998227 -139.57707977 1029.54040146 C-139.40098683 1044.74416527 -140.66539935 1060.16907646 -147.75 1073.9375 C-148.09724121 1074.63657471 -148.44448242 1075.33564941 -148.80224609 1076.0559082 C-160.78090392 1099.51253437 -181.08282437 1114.9985262 -205.74609375 1123.25390625 C-230.34307741 1130.50913165 -256.25971179 1126.21653867 -278.6875 1114.6875 C-284.67092349 1111.35059074 -289.8977619 1107.56209889 -295 1103 C-295.83273437 1102.26136719 -296.66546875 1101.52273438 -297.5234375 1100.76171875 C-314.28801649 1085.0030145 -323.83906274 1062.90139359 -324.6015625 1040.05078125 C-324.64071274 1038.97727921 -324.67986298 1037.90377716 -324.72019958 1036.79774475 C-325.1727908 1022.89496819 -325.11314172 1008.98710919 -325.06866455 995.07897949 C-325.05820056 991.44393525 -325.05381899 987.80888328 -325.04882812 984.17382812 C-325.03829008 977.11586759 -325.02135995 970.05793683 -325 963 C-332.58533257 961.09541529 -340.17061658 959.19319827 -347.7734375 957.359375 C-410.05853527 942.25022181 -469.32138926 916.69447583 -522 880 C-522.62648438 879.56494141 -523.25296875 879.12988281 -523.8984375 878.68164062 C-538.82380823 868.27481568 -553.02019487 856.9772675 -566.875 845.1875 C-567.39118896 844.75066895 -567.90737793 844.31383789 -568.43920898 843.86376953 C-578.96382509 834.85175882 -588.92991274 825.23779917 -598.70458984 815.42578125 C-600.39175958 813.73318653 -602.08430196 812.04609403 -603.77734375 810.359375 C-609.39777365 804.74274214 -614.8813766 799.0847614 -620 793 C-620.90057183 791.95532395 -621.80159128 790.91103357 -622.703125 789.8671875 C-638.04446803 771.8434624 -652.20391109 752.91963638 -665 733 C-665.48936035 732.23913086 -665.9787207 731.47826172 -666.48291016 730.69433594 C-718.24811894 649.73361388 -745.58830951 556.18465138 -745.26074219 460.16333008 C-745.24999249 456.43489375 -745.26074001 452.70693788 -745.2734375 448.97851562 C-745.28614767 427.90168728 -744.3116493 406.81997939 -741.3125 385.9375 C-741.06258301 384.17696289 -741.06258301 384.17696289 -740.80761719 382.38085938 C-732.72888906 327.98124037 -715.58195699 276.11340805 -691 227 C-690.52449707 226.04109863 -690.04899414 225.08219727 -689.55908203 224.09423828 C-678.89773423 202.68195153 -666.28549378 182.186509 -652 163 C-651.58089355 162.43603516 -651.16178711 161.87207031 -650.72998047 161.29101562 C-642.73598913 150.59861724 -634.27447553 140.23069474 -625.671875 130.0234375 C-625.18299805 129.44255371 -624.69412109 128.86166992 -624.19042969 128.26318359 C-623.79758789 127.84633301 -623.40474609 127.42948242 -623 127 C-622.67 127 -622.34 127 -622 127 C-621.96036133 127.72364746 -621.92072266 128.44729492 -621.87988281 129.19287109 C-620.02355966 161.54519913 -614.18730904 189.3052211 -592 214 C-591.2884375 214.81726563 -590.576875 215.63453125 -589.84375 216.4765625 C-569.44168332 238.48564128 -535.9016847 251.86722665 -506.3125 253.625 C-505.11238281 253.69976562 -503.91226563 253.77453125 -502.67578125 253.8515625 C-501.79277344 253.90054687 -500.90976562 253.94953125 -500 254 C-501.38327345 257.985824 -503.23911694 260.78454287 -505.875 264.0625 C-521.29786017 283.98501938 -532.81277234 307.64499577 -542 331 C-542.29326172 331.72767578 -542.58652344 332.45535156 -542.88867188 333.20507812 C-550.62881493 352.49510056 -556.04804468 372.71457161 -559.875 393.125 C-560.16141357 394.64867187 -560.16141357 394.64867187 -560.45361328 396.203125 C-563.53986756 413.70775488 -564.32376036 430.96801833 -564.26074219 448.72338867 C-564.25004673 452.29688604 -564.26068645 455.86987739 -564.2734375 459.44335938 C-564.28598776 478.2122381 -563.4029276 496.787698 -559.8125 515.25 C-559.59746826 516.37220947 -559.38243652 517.49441895 -559.16088867 518.65063477 C-550.22080162 563.77994194 -532.78422502 607.44549858 -506 645 C-505.20142578 646.12100098 -505.20142578 646.12100098 -504.38671875 647.26464844 C-497.01576423 657.55153926 -489.40756957 667.53601768 -481 677 C-480.37029297 677.71583252 -479.74058594 678.43166504 -479.09179688 679.16918945 C-473.48119418 685.4874187 -467.64463919 691.54160838 -461.67138672 697.51391602 C-460.1282647 699.05923066 -458.59335694 700.61240446 -457.05859375 702.16601562 C-450.69969007 708.56143918 -444.10067063 714.42167319 -437 720 C-436.23896973 720.609646 -435.47793945 721.21929199 -434.69384766 721.84741211 C-424.79687437 729.76432517 -414.72269742 737.24022918 -404 744 C-403.14220947 744.54551514 -403.14220947 744.54551514 -402.26708984 745.10205078 C-386.53555348 755.04174424 -369.92565337 763.53014449 -352.8125 770.8125 C-351.82983154 771.23192871 -350.84716309 771.65135742 -349.8347168 772.08349609 C-340.01024978 776.16857003 -330.09158083 779.46794671 -320 783 C-320 690.93 -320 598.86 -320 504 C-259.94 504 -199.88 504 -138 504 C-138 596.07 -138 688.14 -138 783 C-122.58239947 778.50431721 -122.58239947 778.50431721 -107.5 773.1875 C-106.64019531 772.85331055 -105.78039062 772.51912109 -104.89453125 772.17480469 C-67.8325021 757.57993993 -32.58178634 736.07288888 -3.20703125 709.0234375 C-1.27869483 707.25551137 0.68847978 705.56153954 2.6875 703.875 C12.23746375 695.52848697 21.2002719 686.41628247 29.04296875 676.44921875 C30.8598049 674.17545374 32.76412944 672.06316269 34.75 669.9375 C84.73615056 614.18753884 110.37233868 535.79778236 113 462 C113.04253906 460.81277344 113.08507812 459.62554688 113.12890625 458.40234375 C114.0026529 404.87079869 101.95648931 351.80599327 78 304 C77.5683252 303.12714355 77.13665039 302.25428711 76.69189453 301.35498047 C65.30058736 278.44337437 50.94433502 257.56010258 34.60400391 237.92871094 C33.5786847 236.69583091 32.55713947 235.45979609 31.54052734 234.21972656 C19.7401129 219.82937768 6.67949728 206.45496869 -8 195 C-9.85690747 193.41988192 -11.71091476 191.83635134 -13.5625 190.25 C-25.90182851 179.9725541 -39.04152588 170.92162532 -53 163 C-53.70092773 162.5968457 -54.40185547 162.19369141 -55.12402344 161.77832031 C-81.56093221 146.59314667 -106.98876228 137.78069126 -137 130 C-137 218.44 -137 306.88 -137 398 C-197.39 398 -257.78 398 -320 398 C-320.24198809 300.73422984 -320.24198809 300.73422984 -320.29296875 260.09960938 C-320.30471552 250.79907162 -320.31683828 241.49853448 -320.32958984 232.19799805 C-320.33117234 231.03236963 -320.33275483 229.86674122 -320.33438528 228.66579074 C-320.36046243 209.86152951 -320.40775497 191.05737866 -320.46291678 172.25318282 C-320.51907812 152.94685541 -320.55236375 133.64058568 -320.56453097 114.33417994 C-320.57275286 102.42649234 -320.59869615 90.51911663 -320.6474988 78.61152507 C-320.67927901 70.43974962 -320.68878599 62.2681348 -320.68100826 54.09630208 C-320.67717523 49.38548519 -320.68294118 44.67521231 -320.71523285 39.9644928 C-320.74464065 35.64268325 -320.74577218 31.32177849 -320.72539337 26.99992544 C-320.72287843 25.44514173 -320.73031297 23.89029928 -320.74929909 22.33562946 C-320.97016408 3.11622777 -312.69956624 -12.78302236 -300 -27 C-240.97966232 -86.99677709 -97.22929898 -39.89520661 0 0 Z " fill="#000000" transform="translate(856,90)"/>
<path d="M0 0 C1.56453692 1.34892007 3.10618357 2.72480081 4.625 4.125 C5.47707031 4.89714844 6.32914063 5.66929687 7.20703125 6.46484375 C22.42362551 20.90577953 32.21015619 42.09828624 32.828125 63.12890625 C33.19796378 89.2306295 25.94268643 111.65576433 7.98901367 130.92504883 C-6.22370378 145.41169923 -25.98932813 153.88787144 -46.21850586 154.54711914 C-70.09861481 154.70810864 -88.86899288 146.15464453 -106.0625 129.9375 C-122.47878609 112.95350373 -130.35155121 90.62068916 -130.375 67.125 C-129.58899116 47.27239354 -123.27414487 28.40186743 -110.375 13.125 C-109.93929688 12.54492188 -109.50359375 11.96484375 -109.0546875 11.3671875 C-97.7996677 -3.12280805 -78.88249659 -12.43676528 -61.12109375 -15.421875 C-39.02113182 -18.09507165 -17.83482167 -13.74477676 0 0 Z " fill="#000000" transform="translate(416.375,142.875)"/>
</svg>
